<?xml version="1.0" standalone="no"?>
<!DOCTYPE svg PUBLIC "-//W3C//DTD SVG 20010904//EN"
 "http://www.w3.org/TR/2001/REC-SVG-20010904/DTD/svg10.dtd">
<svg version="1.0" xmlns="http://www.w3.org/2000/svg"
 width="480.000000pt" height="480.000000pt" viewBox="0 0 480.000000 480.000000"
 preserveAspectRatio="xMidYMid meet">
<metadata>
Created by potrace 1.11, written by Peter Selinger 2001-2013
</metadata>
<g transform="translate(0.000000,480.000000) scale(0.100000,-0.100000)"
fill="#000000" stroke="none">
<path d="M0 3070 c0 -1652 1 -1730 18 -1730 27 0 347 37 613 70 175 22 278 30
397 30 145 0 161 2 155 16 -4 10 0 20 10 26 10 5 17 15 17 22 0 19 79 86 101
86 35 0 169 -81 169 -102 0 -5 -46 -8 -102 -7 -121 1 -175 -7 -175 -27 0 -11
28 -14 153 -14 135 0 154 2 163 18 10 16 12 16 25 0 14 -19 46 -24 46 -8 0 20
-5 25 -22 22 -23 -4 -23 20 0 40 22 20 146 88 159 88 5 0 31 -14 57 -31 52
-35 59 -65 18 -85 -13 -6 -22 -14 -20 -17 4 -8 -88 -87 -102 -87 -6 0 -26 10
-43 23 -18 13 -43 24 -56 25 -28 1 -23 -7 9 -13 31 -6 60 -34 60 -59 0 -11
-14 -35 -32 -53 -17 -18 -29 -35 -26 -38 3 -3 20 10 39 29 18 19 44 38 56 41
13 3 23 12 23 20 0 17 104 131 133 147 14 7 28 4 57 -16 53 -35 57 -55 22
-118 -84 -151 -90 -154 -164 -81 -56 55 -64 51 -12 -7 l36 -40 -96 0 c-93 0
-96 -1 -86 -20 10 -18 22 -19 213 -19 283 -1 321 8 289 60 -16 25 -14 79 3
109 8 14 14 35 15 46 0 17 9 23 43 29 23 5 47 9 52 9 6 1 22 13 38 28 15 15
27 22 27 15 0 -7 3 -8 8 -2 13 18 30 15 25 -5 -3 -10 -14 -20 -26 -22 -40 -6
-31 -28 12 -28 46 0 62 20 43 51 -7 11 -8 20 -2 24 6 3 10 30 10 59 l0 53 61
7 c55 7 63 5 76 -13 17 -25 80 -28 122 -6 16 8 31 11 35 8 3 -4 6 1 6 10 0 24
11 21 58 -13 56 -40 55 -62 -5 -100 -26 -17 -55 -30 -65 -30 -25 0 -98 38 -98
51 0 6 -7 3 -16 -5 -8 -9 -20 -13 -26 -10 -7 5 -8 2 -4 -5 5 -7 13 -10 20 -8
7 3 27 -10 45 -29 26 -26 39 -32 57 -28 30 8 126 -51 122 -74 -5 -28 -26 -24
-68 14 -47 43 -67 38 -25 -6 35 -37 156 -118 197 -134 25 -9 32 -8 36 3 2 7
13 22 23 32 11 11 19 28 19 40 0 19 68 99 84 99 4 0 19 11 34 25 36 33 66 32
92 -5 28 -40 20 -61 -35 -88 -55 -27 -68 -27 -102 -5 l-26 18 16 -26 c32 -48
-3 -130 -41 -97 -17 16 -42 14 -42 -3 0 -5 7 -9 16 -9 8 0 22 -7 30 -15 33
-33 84 -1 84 52 0 16 6 23 19 23 23 0 113 47 123 65 4 7 18 10 31 8 29 -6 207
55 214 74 3 7 17 13 32 13 23 0 102 43 167 90 12 8 27 33 34 55 7 22 16 44 21
49 5 6 9 22 9 36 0 14 6 35 14 46 14 19 15 19 42 -2 15 -11 36 -32 47 -46 l19
-26 -31 -58 c-44 -80 -92 -144 -107 -144 -7 0 -19 9 -27 20 -8 11 -17 17 -20
13 -4 -3 2 -12 13 -20 11 -8 20 -20 20 -26 0 -17 -92 -97 -111 -97 -9 0 -38
12 -63 26 -26 15 -49 24 -52 21 -3 -3 12 -15 35 -27 23 -11 41 -27 41 -35 0
-20 -46 -47 -128 -75 l-68 -23 -68 38 c-82 46 -97 42 -18 -5 l57 -35 -30 -6
c-16 -4 -70 -7 -118 -8 -66 -1 -88 -4 -85 -13 6 -17 226 -24 242 -8 5 5 22 10
37 10 55 0 206 65 215 92 3 11 15 18 31 18 35 0 177 144 227 230 21 36 39 70
41 75 1 6 7 21 13 35 7 14 18 54 26 89 8 34 16 64 18 65 2 2 194 26 428 55
234 28 437 54 453 57 l27 6 0 1434 0 1434 -2400 0 -2400 0 0 -1730z m1943 767
c36 -16 103 -85 117 -123 15 -38 12 -130 -5 -171 -9 -20 -34 -53 -56 -74 l-41
-38 46 -79 c25 -43 46 -84 46 -91 0 -8 -20 -11 -67 -9 l-68 3 -45 77 -45 78
-172 0 -173 0 0 -80 0 -80 -60 0 -60 0 0 300 0 300 275 0 c209 0 283 -3 308
-13z m407 -157 c0 -206 9 -232 92 -279 126 -72 305 -35 358 75 17 35 20 62 20
207 l0 167 63 0 62 0 -3 -187 c-3 -160 -6 -194 -23 -234 -25 -58 -88 -119
-159 -156 -51 -26 -64 -28 -170 -28 -106 0 -120 2 -177 29 -70 32 -142 101
-169 162 -13 31 -18 80 -22 227 l-4 187 66 0 66 0 0 -170z m1158 -52 l222
-223 0 223 0 222 60 0 60 0 0 -300 0 -300 -72 0 -73 0 -222 222 -223 223 0
-223 0 -222 -65 0 -65 0 0 300 0 300 78 0 78 0 222 -222z m-2029 -542 c28 -30
51 -63 51 -72 0 -23 -133 -154 -157 -154 -11 0 -37 25 -65 61 l-47 62 22 39
c12 22 37 57 55 79 48 56 75 53 141 -15z m117 12 c-14 -24 -33 -44 -43 -46
-11 -2 -36 16 -63 43 l-44 45 87 0 88 0 -25 -42z m184 35 c0 -17 -50 -191 -64
-225 -9 -21 -22 -38 -30 -38 -14 0 -95 99 -109 133 -5 13 3 38 25 78 l33 59
72 0 c40 0 73 -3 73 -7z m290 -6 c0 -20 -66 -77 -89 -77 -17 0 -96 48 -135 82
-6 4 43 8 107 8 88 0 117 -3 117 -13z m500 -7 c9 -16 3 -35 -31 -98 -46 -86
-66 -112 -86 -112 -20 0 -112 101 -113 123 0 10 17 33 37 52 21 19 35 36 32
39 -2 3 -22 -10 -42 -29 -21 -19 -47 -35 -58 -35 -11 0 -42 18 -70 40 l-51 40
186 0 c174 -1 186 -2 196 -20z m150 11 c0 -23 -24 -71 -35 -71 -17 0 -45 39
-45 62 0 14 8 18 40 18 22 0 40 -4 40 -9z m190 -1 c0 -5 -2 -10 -4 -10 -3 0
-8 5 -11 10 -3 6 -1 10 4 10 6 0 11 -4 11 -10z m530 -14 c-37 -36 -64 -38 -68
-3 -3 26 -2 27 45 27 l48 0 -25 -24z m318 12 c6 -6 12 -23 12 -38 0 -24 -8
-33 -55 -56 l-55 -28 -27 21 c-38 27 -39 46 -6 77 30 28 21 35 -11 11 -27 -21
-60 -19 -81 5 -18 20 -17 20 96 19 63 -1 120 -6 127 -11z m92 -18 c0 -22 -5
-30 -18 -30 -22 0 -47 19 -55 43 -5 14 0 17 33 17 38 0 40 -2 40 -30z m-325 0
c34 -38 -4 -121 -48 -104 -16 6 -27 35 -27 75 0 48 42 65 75 29z m-1631 -27
c30 -21 58 -46 61 -55 8 -23 -4 -60 -16 -52 -5 3 -8 1 -7 -4 4 -14 -44 -90
-60 -97 -19 -7 -101 62 -108 91 -12 46 29 154 57 154 10 0 43 -17 73 -37z
m384 -51 c2 -13 -11 -33 -37 -58 -23 -20 -41 -42 -41 -47 0 -5 22 11 50 37 27
25 55 46 63 46 20 0 127 -115 127 -136 0 -24 -133 -154 -158 -154 -13 0 -34
18 -56 48 l-35 48 0 153 -1 154 42 -35 c24 -20 44 -45 46 -56z m618 79 c5 -6
8 -53 6 -105 -3 -77 -6 -96 -18 -96 -27 0 -144 90 -144 110 0 11 17 37 38 60
31 32 46 40 73 40 19 0 39 -4 45 -9z m-824 -90 l-4 -61 -23 18 c-41 29 -40 55
1 96 24 25 29 14 26 -53z m582 38 c20 -23 26 -41 26 -77 -1 -63 -61 -246 -82
-250 -18 -3 -118 120 -118 145 0 8 25 59 56 114 63 110 77 118 118 68z m955
-35 c11 -14 18 -31 16 -37 -2 -7 -6 -24 -9 -39 -8 -37 -43 -38 -56 -2 -11 29
-13 87 -3 97 13 14 32 7 52 -19z m-160 -10 c19 -16 31 -35 31 -50 0 -24 -82
-178 -100 -189 -5 -3 -9 55 -9 130 l-1 135 24 0 c14 0 38 -12 55 -26z m401
-14 l0 -41 -31 16 c-16 9 -29 22 -26 28 3 9 43 36 55 37 1 0 2 -18 2 -40z
m-2241 -65 c63 -83 69 -100 44 -133 -12 -15 -26 -26 -33 -24 -6 1 -9 -2 -6 -7
9 -14 -127 -93 -147 -85 -20 7 -77 106 -77 133 0 11 23 41 52 68 28 26 62 60
76 76 14 15 31 27 37 27 7 0 31 -25 54 -55z m434 27 c24 -25 27 -36 27 -98 0
-56 -4 -74 -18 -87 -10 -10 -22 -14 -25 -10 -4 3 -7 -1 -7 -9 0 -16 -20 -28
-44 -28 -16 0 -86 95 -86 116 0 10 19 46 42 81 48 72 69 79 111 35z m767 -25
c30 -24 56 -50 58 -58 3 -16 -77 -140 -95 -146 -15 -5 -93 65 -104 94 -7 20
15 109 36 143 13 20 52 8 105 -33z m1009 26 c30 -17 31 -20 31 -87 0 -75 -16
-106 -53 -106 -31 0 -147 88 -147 111 0 11 16 38 37 59 41 46 80 52 132 23z
m-2515 -57 c39 -57 42 -88 8 -101 -9 -3 -18 -6 -19 -6 -2 1 -12 -8 -23 -19
-11 -11 -27 -20 -35 -20 -8 0 -15 -4 -15 -8 0 -13 -48 -32 -64 -26 -32 12 -25
39 35 140 34 57 65 102 68 99 4 -2 24 -28 45 -59z m2257 15 c23 -24 29 -38 29
-75 0 -24 -5 -48 -10 -51 -6 -4 -8 -10 -5 -14 8 -14 -56 -191 -70 -191 -19 0
-115 126 -115 151 0 11 8 33 18 47 11 15 36 57 56 95 21 37 44 67 53 67 8 0
28 -13 44 -29z m-1742 -36 c17 -20 31 -42 31 -49 0 -19 -62 -136 -72 -136 -4
0 -8 -6 -8 -13 0 -8 -9 -22 -20 -32 -18 -16 -23 -17 -45 -5 -40 21 -41 51 -4
163 19 56 38 108 42 114 12 17 36 3 76 -42z m705 -101 c27 -36 49 -76 49 -90
0 -26 -30 -67 -43 -59 -4 3 -10 -2 -13 -10 -5 -12 -79 -65 -92 -65 -2 0 -3 23
-2 50 2 39 -1 50 -13 51 -8 0 -37 1 -64 2 -28 1 -51 7 -53 14 -5 13 155 172
173 173 5 0 32 -30 58 -66z m382 50 c-3 -9 -6 -67 -6 -130 0 -85 -3 -114 -12
-114 -20 0 -88 90 -88 115 0 30 76 145 96 145 11 0 14 -5 10 -16z m815 -40
c32 -25 59 -51 59 -57 0 -19 -89 -147 -102 -147 -6 0 -33 22 -61 50 -55 55
-57 68 -18 156 26 57 46 57 122 -2z m-2316 -45 c14 -27 25 -57 25 -68 0 -22
-34 -46 -50 -36 -6 3 -10 2 -10 -4 0 -13 -67 -34 -86 -27 -8 3 -12 2 -9 -3 8
-15 -32 -23 -53 -12 -23 12 -45 62 -40 88 6 31 158 126 185 116 8 -3 25 -27
38 -54z m520 15 c19 -26 35 -54 35 -63 0 -23 -123 -141 -147 -141 -10 0 -29 9
-42 21 -23 21 -22 48 4 79 7 8 29 45 49 83 21 37 44 67 51 67 8 0 30 -21 50
-46z m799 -13 c31 -33 39 -86 14 -106 -7 -5 -14 -17 -16 -25 -6 -26 -73 -120
-85 -120 -25 0 -57 32 -57 55 0 13 14 64 30 113 17 50 30 97 30 105 0 37 38
27 84 -22z m-498 -6 c25 -44 26 -47 9 -65 -34 -37 -45 -25 -45 45 0 36 2 65 5
65 2 0 16 -20 31 -45z m-156 -69 c-5 -82 -6 -87 -21 -70 -24 29 -49 72 -49 84
0 17 63 91 70 83 3 -5 3 -48 0 -97z m1779 -43 c1 -123 -1 -149 -15 -165 -10
-10 -24 -18 -33 -18 -26 0 -91 84 -90 117 0 42 68 137 101 141 20 2 25 7 21
22 -5 19 2 50 11 50 2 0 4 -66 5 -147z m-2719 83 c0 -16 -11 -32 -30 -46 -36
-25 -37 -20 -8 31 25 45 38 50 38 15z m2308 -77 c26 -37 42 -70 42 -88 0 -28
-9 -38 -97 -104 -10 -7 -12 21 -12 127 0 102 3 134 12 130 7 -3 31 -32 55 -65z
m-1755 9 c26 -30 21 -45 -25 -78 -59 -43 -72 -40 -65 15 8 54 -4 58 -32 9 -16
-27 -26 -34 -39 -29 -9 4 -25 9 -34 12 -33 10 -29 34 8 49 141 59 153 60 187
22z m-518 -3 c14 -13 25 -33 25 -43 0 -24 -25 -46 -41 -36 -8 4 -9 3 -5 -4 6
-11 -6 -16 -26 -13 -5 0 -8 -3 -8 -9 0 -18 -56 -11 -74 9 -25 27 -13 55 37 90
52 37 61 38 92 6z m851 -15 c18 -26 24 -47 20 -62 -5 -22 -110 -98 -135 -98
-23 0 -61 33 -61 53 0 22 116 147 137 147 7 0 25 -18 39 -40z m818 -7 c20 -25
36 -53 36 -60 0 -8 -29 -43 -64 -79 -53 -55 -68 -65 -92 -62 -18 2 -34 12 -43
30 -14 25 -13 29 18 80 19 29 43 69 53 88 11 19 22 38 25 43 10 17 33 4 67
-40z m785 -5 c47 -50 50 -72 17 -133 -75 -133 -96 -149 -135 -99 -27 34 -27
35 8 119 15 39 31 87 35 107 4 20 12 39 19 41 7 3 13 6 14 6 1 1 20 -18 42
-41z m-2134 -51 c22 -11 41 -21 43 -22 2 -1 -7 -19 -18 -38 -22 -38 -98 -87
-133 -87 -21 0 -167 77 -167 88 0 15 17 29 45 40 17 6 55 20 85 31 59 21 82
20 145 -12z m272 8 c32 -23 35 -52 6 -85 -31 -37 -65 -39 -110 -4 -33 25 -34
27 -17 45 9 10 21 19 26 19 4 0 17 9 28 20 24 24 38 25 67 5z m-729 -37 c29
-29 1 -118 -32 -105 -24 9 -29 51 -12 86 18 34 26 37 44 19z m1542 -13 c29
-15 46 -47 35 -65 -13 -21 -85 -60 -109 -60 -49 0 -76 20 -76 57 0 31 4 36 53
58 63 29 61 29 97 10z m-516 -1 c11 -4 16 -19 16 -53 0 -41 -4 -49 -29 -64
-39 -23 -72 -22 -99 3 -34 32 -33 34 43 90 44 32 46 33 69 24z m850 -12 c-1
-6 -2 -39 -2 -72 -2 -47 -6 -62 -19 -67 -9 -4 -25 -15 -35 -25 -22 -22 -46
-23 -76 -2 -36 25 -27 54 40 122 56 58 95 76 92 44z m827 -15 c52 -65 54 -75
22 -111 -103 -114 -125 -126 -165 -89 -27 24 -22 47 22 114 22 33 40 64 40 67
0 14 31 52 43 52 7 0 24 -15 38 -33z m-2453 -49 c30 -17 56 -37 59 -45 6 -16
-65 -95 -79 -87 -4 3 -8 -2 -8 -10 0 -9 -11 -18 -25 -22 -19 -5 -40 4 -90 37
-35 24 -67 50 -70 57 -7 18 12 51 44 80 53 47 71 46 169 -10z m372 26 c22 -15
40 -34 40 -44 0 -19 -33 -53 -43 -45 -4 3 -5 2 -2 -2 6 -7 -34 -53 -46 -53 -5
0 -8 38 -8 85 0 47 5 85 10 85 5 0 27 -12 49 -26z m203 4 c7 -11 8 -29 1 -55
-8 -33 -13 -38 -38 -38 -25 0 -31 5 -38 32 -12 48 5 85 38 81 15 -2 32 -11 37
-20z m1996 -113 c-1 -92 -2 -96 -29 -115 -16 -11 -31 -20 -34 -20 -4 0 -16 -9
-28 -20 -29 -27 -54 -25 -83 4 -32 32 -26 46 44 119 60 62 80 69 104 35 9 -13
16 -18 16 -11 1 6 -3 15 -9 18 -20 12 -6 85 17 85 1 0 2 -43 2 -95z m-2865 54
c31 -36 31 -42 7 -139 -28 -108 -54 -174 -72 -178 -8 -1 -34 24 -63 63 l-48
65 20 33 c11 17 41 67 66 110 26 42 50 77 55 77 5 0 21 -14 35 -31z m1686 11
c26 -26 25 -58 -2 -87 -26 -27 -55 -29 -97 -5 -52 29 -51 38 18 87 42 30 55
31 81 5z m-1225 -34 c-17 -26 -35 -26 -35 -1 0 17 44 49 48 36 2 -5 -4 -21
-13 -35z m487 7 c21 -19 23 -51 6 -88 -21 -47 -56 -24 -64 44 -3 23 -2 46 1
51 9 15 36 12 57 -7z m-154 -22 c17 -17 32 -35 32 -41 0 -15 -77 -160 -98
-182 -22 -26 -31 -23 -79 24 -36 35 -43 49 -43 81 0 33 7 44 58 92 31 30 66
54 77 55 11 0 35 -13 53 -29z m670 17 c7 -7 8 -17 1 -30 -15 -27 -29 -22 -29
12 0 32 9 37 28 18z m1041 -24 c17 -14 31 -32 31 -39 0 -22 -85 -75 -119 -75
-31 0 -31 0 -31 55 0 54 1 57 33 70 44 20 51 19 86 -11z m-2084 -8 c15 -11 17
-17 8 -28 -7 -7 -32 -48 -56 -91 l-44 -78 -37 41 c-36 40 -36 41 -20 68 20 32
100 102 118 102 7 0 21 -6 31 -14z m1139 -24 c66 -46 67 -56 16 -103 -25 -22
-57 -52 -72 -66 -14 -13 -35 -23 -45 -21 -16 3 -18 15 -20 91 l-3 87 33 20
c41 25 44 25 91 -8z m211 4 c14 -10 17 -21 12 -51 -7 -42 -21 -57 -52 -53 -26
4 -42 59 -27 93 13 28 39 32 67 11z m151 -8 c-3 -13 -6 -38 -6 -55 0 -39 -26
-45 -55 -13 -15 17 -16 24 -7 45 6 14 18 25 27 25 8 0 15 5 15 10 0 6 7 10 16
10 12 0 15 -6 10 -22z m-1773 -29 c39 -28 57 -47 57 -62 0 -27 -54 -110 -64
-100 -4 5 -7 4 -6 -2 10 -49 -33 -46 -87 6 -50 47 -52 64 -22 143 27 69 42 71
122 15z m939 -46 c-2 -49 -6 -89 -7 -91 -4 -5 -79 48 -87 61 -4 7 -8 18 -8 24
0 20 70 93 89 93 15 0 17 -10 13 -87z m-190 30 c38 -42 40 -59 18 -147 -27
-110 -55 -180 -72 -184 -15 -3 -118 127 -118 148 0 7 15 38 34 69 18 31 43 75
55 99 25 50 47 54 83 15z m1698 -5 c11 -12 20 -30 20 -40 0 -26 -44 -68 -71
-68 -29 0 -89 38 -89 56 0 15 85 74 107 74 7 0 21 -10 33 -22z m-740 -28 c23
-23 24 -35 9 -79 -13 -36 -32 -40 -53 -9 -19 27 -21 94 -3 101 21 9 26 8 47
-13z m-151 -25 c17 -20 31 -38 31 -41 0 -15 -32 -64 -39 -59 -5 3 -7 -3 -4
-13 2 -10 -6 -29 -19 -44 -13 -14 -24 -32 -26 -39 -5 -20 -22 -39 -35 -39 -20
0 -117 104 -117 125 0 11 27 47 63 82 75 75 100 80 146 28z m1161 -49 c0 -67
-6 -76 -53 -76 -26 0 -57 28 -57 51 0 15 83 86 103 88 4 1 7 -28 7 -63z
m-2580 9 l35 -36 -25 -47 c-14 -26 -33 -55 -42 -64 -10 -10 -16 -18 -13 -18 3
0 -1 -13 -10 -30 -9 -16 -17 -30 -20 -30 -2 0 -20 21 -40 47 -42 55 -41 71 7
142 30 44 55 71 68 71 3 0 21 -16 40 -35z m2194 0 c25 -20 46 -39 46 -43 0 -4
-31 -38 -69 -75 l-69 -68 -1 101 c-1 56 1 106 4 111 12 18 43 9 89 -26z m200
9 c20 -20 20 -53 0 -82 -31 -44 -74 -18 -74 45 0 50 41 70 74 37z m-2810 -56
c25 -34 46 -71 46 -83 0 -26 -47 -72 -116 -114 -57 -35 -98 -40 -114 -13 -9
15 -10 14 -5 -5 3 -13 1 -31 -5 -40 -9 -14 -10 -6 -6 36 4 43 19 76 73 167 37
63 71 114 74 114 4 0 28 -28 53 -62z m1172 32 c43 -30 44 -33 44 -84 0 -60
-31 -119 -65 -124 -12 -1 -37 14 -64 40 -40 39 -43 45 -38 82 3 23 12 58 21
79 20 46 42 48 102 7z m-356 -75 c0 -9 -18 -35 -40 -58 l-39 -42 0 100 0 100
39 -42 c22 -23 40 -49 40 -58z m1122 45 c28 -29 30 -34 25 -88 -3 -31 -8 -68
-11 -82 -4 -14 3 -2 14 25 24 57 46 78 67 66 11 -6 15 -28 15 -86 0 -43 6 -95
14 -117 11 -33 11 -38 -2 -38 -25 0 -101 68 -109 98 -5 18 -9 22 -13 12 -28
-83 -46 -120 -56 -120 -16 0 -116 128 -116 148 0 25 112 212 127 212 8 0 28
-14 45 -30z m-1754 -23 c23 -23 42 -51 42 -60 0 -39 -98 -197 -122 -197 -20 0
-58 43 -58 65 0 13 9 42 19 66 11 24 25 67 32 94 12 49 25 75 38 75 4 0 26
-19 49 -43z m1872 -18 c0 -20 -4 -29 -12 -27 -15 5 -22 33 -14 54 9 24 26 6
26 -27z m683 -7 c16 -16 27 -36 26 -51 -1 -35 -89 -185 -111 -189 -22 -4 -118
96 -118 124 0 13 26 46 70 87 75 72 83 74 133 29z m151 22 c21 -21 21 -88 0
-105 -14 -11 -19 -10 -35 10 -18 23 -26 90 -12 104 11 12 31 8 47 -9z m-1221
-83 c32 -33 57 -62 57 -66 0 -21 -37 -69 -87 -114 l-58 -52 -7 38 c-8 42 -9
233 -1 246 12 19 45 2 96 -52z m-764 -30 c28 -38 51 -75 51 -83 0 -20 -39 -70
-50 -63 -4 3 -10 -2 -14 -10 -8 -22 -98 -75 -128 -75 -21 0 -32 10 -57 55 -43
76 -39 125 11 125 11 0 18 7 18 20 0 11 4 20 9 20 4 0 26 18 47 40 22 22 44
40 51 40 6 0 34 -31 62 -69z m2091 -32 l0 -70 -30 21 c-37 26 -38 56 -5 93 14
15 28 27 30 27 3 0 5 -32 5 -71z m-2692 16 c18 -25 32 -53 32 -63 0 -23 -120
-142 -144 -142 -11 0 -28 7 -38 17 -19 17 -25 68 -8 78 6 3 29 40 51 81 26 47
47 74 58 74 9 0 32 -20 49 -45z m2544 15 c32 -32 32 -36 15 -150 l-5 -35 13
30 c8 17 14 35 15 41 0 6 9 19 20 29 18 17 21 16 56 -5 l36 -23 -6 -56 c-8
-63 -25 -131 -38 -146 -12 -13 -87 64 -96 99 -8 29 -9 28 -26 -30 -19 -60 -32
-84 -46 -84 -17 0 -110 130 -110 153 0 14 8 35 18 48 10 13 31 49 46 79 49 94
59 98 108 50z m-1752 -26 c48 -52 48 -64 0 -141 -16 -26 -34 -57 -39 -68 -17
-39 -39 -50 -67 -35 -13 8 -27 24 -30 37 -8 29 64 253 81 253 7 0 31 -21 55
-46z m126 1 c-7 -28 -13 -27 102 -26 76 1 82 -1 73 -17 -14 -24 -116 -122
-129 -122 -16 0 -92 93 -92 113 0 25 28 77 41 77 7 0 9 -10 5 -25z m-596 -42
c0 -20 -28 -53 -47 -53 -7 0 -13 -4 -13 -8 0 -5 -12 -15 -27 -23 -16 -8 -34
-20 -42 -27 -7 -7 -25 -12 -39 -10 -34 4 -87 86 -77 117 6 20 14 21 126 21
105 0 119 -2 119 -17z m2000 -114 c0 -45 -130 -169 -164 -156 -7 3 -23 18 -34
34 l-21 30 44 45 c43 46 65 96 65 153 l0 29 55 -54 c40 -39 55 -62 55 -81z
m-816 47 c50 -70 58 -112 28 -139 -10 -10 -22 -14 -25 -10 -4 3 -7 1 -7 -5 0
-21 -108 -84 -138 -80 -30 3 -67 59 -78 116 -6 30 -1 37 72 107 44 41 84 75
91 75 6 0 32 -29 57 -64z m-357 -51 l2 -100 -36 -23 c-20 -13 -45 -22 -57 -20
-23 3 -75 73 -76 101 0 28 120 149 145 145 18 -3 20 -10 22 -103z m-1403 64
c14 -11 26 -29 26 -40 0 -24 -74 -79 -106 -79 -31 0 -135 51 -131 64 4 12 145
75 168 76 9 0 28 -9 43 -21z m346 -29 c26 -50 25 -62 -3 -86 -41 -35 -103 -74
-117 -74 -19 0 -60 40 -60 59 0 21 120 141 142 141 10 0 26 -16 38 -40z m292
-15 c15 -27 28 -60 28 -72 0 -23 -33 -48 -50 -38 -6 3 -10 2 -10 -3 0 -12 -78
-34 -92 -26 -6 4 -8 3 -5 -3 8 -13 -28 -24 -49 -16 -19 7 -44 56 -44 85 0 19
17 36 78 75 42 29 86 51 97 50 13 -1 30 -20 47 -52z m526 6 c22 -32 32 -56 28
-68 -9 -29 -121 -133 -143 -133 -22 0 -63 35 -63 54 0 7 18 40 40 74 21 34 46
75 55 92 22 43 45 37 83 -19z m781 4 c21 -19 41 -44 44 -55 6 -25 -53 -146
-70 -143 -7 2 -10 -3 -7 -10 3 -8 -3 -24 -14 -37 -18 -22 -19 -22 -50 -6 -18
9 -32 23 -32 31 0 8 -5 15 -11 15 -5 0 -7 -6 -3 -12 5 -9 2 -9 -9 1 -22 18
-22 31 1 31 13 0 25 20 45 73 15 41 27 79 27 85 0 21 20 62 30 62 5 0 27 -16
49 -35z m-2109 -65 c22 -11 40 -27 40 -35 0 -17 -34 -37 -45 -27 -5 4 -6 3 -3
-3 3 -5 -14 -22 -38 -37 l-44 -27 0 84 0 85 25 -10 c13 -5 42 -19 65 -30z
m257 8 c13 -12 23 -28 23 -37 0 -22 -51 -71 -75 -71 -28 0 -95 47 -89 63 6 16
85 67 103 67 8 0 25 -10 38 -22z m1975 -23 c11 -14 38 -35 61 -46 38 -20 40
-22 22 -35 -10 -8 -24 -14 -30 -14 -13 0 -85 92 -85 109 0 18 11 13 32 -14z
m554 17 c6 -4 29 -32 52 -63 52 -69 54 -99 10 -140 -46 -42 -136 -91 -160 -87
-13 2 -35 27 -60 67 l-38 63 85 84 c88 86 92 89 111 76z m-1710 -47 c14 -14
24 -33 22 -42 -4 -22 -77 -72 -105 -73 -28 0 -133 51 -133 65 0 11 145 74 173
75 10 0 29 -11 43 -25z m-507 -11 c12 -15 21 -35 21 -44 0 -23 -26 -44 -41
-34 -8 4 -9 3 -5 -4 6 -11 -6 -16 -26 -13 -5 0 -8 -3 -8 -9 0 -16 -52 -11 -72
7 -29 26 -21 50 30 88 57 42 74 43 101 9z m849 -14 c12 -21 22 -46 22 -53 0
-18 -117 -107 -140 -107 -22 0 -60 37 -60 58 0 22 117 142 139 142 9 0 26 -18
39 -40z m817 -6 c19 -26 35 -52 35 -58 0 -19 -125 -146 -144 -146 -27 0 -66
31 -66 52 0 10 18 46 40 79 22 33 40 64 40 67 0 16 32 52 45 52 8 0 30 -21 50
-46z m281 28 c-3 -5 4 -21 15 -38 31 -47 25 -67 -31 -103 -27 -18 -55 -29 -61
-25 -8 4 -9 3 -5 -4 8 -13 -24 -32 -52 -32 -22 0 -72 75 -72 106 0 33 38 62
78 59 20 -1 25 0 10 2 -16 2 -28 8 -28 13 0 4 10 6 22 2 12 -3 19 -1 15 5 -4
6 12 7 43 3 27 -3 47 -3 44 1 -2 4 2 10 8 12 19 8 20 8 14 -1z m-2383 -32 c27
-17 47 -37 47 -47 0 -22 -124 -143 -146 -143 -9 0 -36 16 -60 35 -60 49 -68
44 -11 -8 26 -24 47 -49 47 -55 0 -7 -15 -12 -34 -12 -19 0 -42 -3 -51 -6 -14
-6 -15 4 -13 85 l3 92 50 27 c28 15 52 30 55 33 8 10 44 28 56 29 5 0 31 -13
57 -30z m212 0 c16 -18 16 -22 2 -57 -16 -40 -52 -57 -68 -31 -10 15 -12 69
-3 92 8 22 47 20 69 -4z m1213 -161 c-19 -12 -44 7 -62 46 -20 41 -14 55 34
87 l35 24 3 -75 c2 -51 -1 -77 -10 -82z m-693 120 c69 -36 85 -49 79 -63 -7
-19 -119 -78 -129 -68 -5 4 -5 2 -1 -5 4 -8 -3 -15 -20 -19 -35 -9 -179 65
-179 92 0 11 25 27 80 50 95 39 118 41 170 13z m308 -20 c22 -31 13 -58 -28
-85 -29 -19 -60 -14 -98 17 -33 25 -27 40 29 74 47 30 71 28 97 -6z m-926 -19
c56 -34 66 -81 26 -127 -15 -17 -33 -21 -116 -25 -89 -4 -97 -2 -97 15 0 15
135 156 150 157 3 0 19 -9 37 -20z m175 3 c31 -28 16 -113 -20 -113 -22 0 -52
96 -37 120 9 15 36 12 57 -7z m1057 -39 c12 -15 21 -35 21 -44 0 -22 -78 -70
-112 -70 -21 0 -68 32 -68 46 0 15 23 44 35 44 7 0 15 3 17 8 6 13 53 41 70
41 9 1 26 -11 37 -25z m849 -16 c12 -24 22 -47 22 -51 0 -10 -62 -67 -73 -67
-4 0 -17 -9 -29 -20 -28 -26 -41 -25 -86 5 -20 14 -32 25 -25 25 6 0 13 11 17
24 7 29 111 126 134 126 10 0 27 -18 40 -42z m295 -21 c23 -45 28 -63 20 -75
-13 -21 -111 -61 -168 -69 -42 -5 -44 -4 -70 37 -26 41 -26 42 -8 62 10 11 38
32 63 46 25 14 56 34 69 44 38 29 59 19 94 -45z m-1365 -9 c5 -42 -14 -78 -42
-78 -29 0 -32 4 -41 52 -6 29 -3 40 15 58 19 19 24 20 43 7 12 -8 23 -25 25
-39z m-883 -23 c14 -14 25 -30 25 -35 0 -7 -108 -20 -118 -14 -2 1 5 18 14 38
21 43 43 46 79 11z m1697 -2 c23 -20 25 -73 2 -73 -8 0 -12 -4 -9 -10 3 -5 -6
-15 -20 -22 -23 -10 -33 -9 -71 11 -24 13 -44 30 -44 37 0 17 79 73 104 74 11
0 28 -7 38 -17z m-746 -20 c5 -10 8 -42 6 -71 -3 -42 -7 -52 -20 -50 -38 7
-58 108 -24 127 23 14 26 14 38 -6z m822 -59 c24 -17 28 -49 10 -89 -13 -28
-55 -35 -64 -10 -4 8 -12 15 -20 15 -8 0 -14 5 -14 10 0 6 5 10 10 10 6 0 10
11 10 24 0 23 23 56 38 56 4 0 18 -7 30 -16z m-881 -26 c-2 -7 7 -26 22 -41
21 -23 26 -37 24 -72 -1 -25 -4 -49 -8 -55 -7 -11 -179 -14 -173 -2 2 4 23 42
46 85 31 54 49 77 63 77 10 0 19 5 19 10 0 6 3 10 6 10 3 0 4 -6 1 -12z m806
-73 c22 -15 37 -34 37 -46 0 -19 -2 -18 -49 6 -56 28 -70 43 -50 56 19 12 20
12 62 -16z m-736 -85 c-1 -11 -5 -20 -9 -20 -10 0 -10 4 -2 24 8 22 13 20 11
-4z"/>
<path d="M1480 3635 l0 -95 205 0 c204 0 206 0 230 24 32 32 40 69 25 107 -22
53 -48 59 -265 59 l-195 0 0 -95z"/>
<path d="M4198 1723 c7 -3 16 -2 19 1 4 3 -2 6 -13 5 -11 0 -14 -3 -6 -6z"/>
<path d="M3888 1683 c7 -3 16 -2 19 1 4 3 -2 6 -13 5 -11 0 -14 -3 -6 -6z"/>
<path d="M1018 1323 c7 -3 16 -2 19 1 4 3 -2 6 -13 5 -11 0 -14 -3 -6 -6z"/>
<path d="M378 1243 c7 -3 16 -2 19 1 4 3 -2 6 -13 5 -11 0 -14 -3 -6 -6z"/>
</g>
</svg>
